<svg xmlns="http://www.w3.org/2000/svg" viewBox="0 0 512 512"><!--!Font Awesome Free 6.5.2 by @fontawesome - https://fontawesome.com License - https://fontawesome.com/license/free Copyright 2024 Fonticons, Inc.--><path d="M.2 184.4C-2.2 244.2 23 298.1 64 334.9V512H224V316.5L3.7 156.3A182.3 182.3 0 0 0 .2 184.4zM509.2 275c-21-47.1-48.5-151.8-73.1-186.8A208.1 208.1 0 0 0 266.1 0H200C117 0 42.5 50.6 13.3 123.7L239.2 288H511.8A31.4 31.4 0 0 0 509.2 275zM320 224a32 32 0 1 1 32-32A32.1 32.1 0 0 1 320 224zm16 144H496l16-48H256V512H401.9a64 64 0 0 0 60.7-43.8L464 464H336a16 16 0 0 1 0-32H474.7l10.7-32H336a16 16 0 0 1 0-32z"/></svg>